<?xml version="1.0" standalone="no"?>
<!DOCTYPE svg PUBLIC "-//W3C//DTD SVG 20010904//EN"
 "http://www.w3.org/TR/2001/REC-SVG-20010904/DTD/svg10.dtd">
<svg version="1.0" xmlns="http://www.w3.org/2000/svg"
 width="300.000000pt" height="300.000000pt" viewBox="0 0 300.000000 300.000000"
 preserveAspectRatio="xMidYMid meet">
<metadata>
Created by potrace 1.14, written by Peter Selinger 2001-2017
</metadata>
<g transform="translate(0.000000,300.000000) scale(0.100000,-0.100000)"
fill="#000000" stroke="none">
<path d="M725 2613 c-5 -13 -9 -14 -12 -5 -4 10 -8 9 -17 -3 -7 -9 -28 -20
-46 -24 -27 -5 -36 -12 -38 -31 -2 -14 -10 -29 -18 -33 -8 -4 -14 -14 -14 -22
0 -8 -13 -22 -30 -31 -16 -10 -32 -24 -34 -31 -7 -18 4 -16 26 4 29 26 33 7 4
-22 -33 -33 -33 -58 2 -90 33 -31 58 -40 74 -25 50 42 105 80 116 80 7 0 17
11 23 24 7 13 40 43 75 65 66 43 82 71 41 71 -13 0 -32 9 -42 20 -10 11 -23
20 -28 20 -5 0 -20 11 -33 25 -27 30 -39 31 -49 8z"/>
<path d="M1660 2600 c-13 -8 -12 -10 3 -10 9 0 17 5 17 10 0 12 -1 12 -20 0z"/>
<path d="M560 2542 c0 -12 19 -26 26 -19 2 2 -2 10 -11 17 -9 8 -15 8 -15 2z"/>
<path d="M1898 2526 c-38 -28 -14 -57 40 -48 12 3 22 11 22 18 0 8 5 14 12 14
6 0 3 7 -8 15 -24 18 -44 18 -66 1z"/>
<path d="M1270 2430 c0 -11 4 -20 9 -20 6 0 9 9 8 20 -1 11 -5 20 -9 20 -4 0
-8 -9 -8 -20z"/>
<path d="M1460 2414 c0 -8 5 -12 10 -9 6 4 8 11 5 16 -9 14 -15 11 -15 -7z"/>
<path d="M872 2325 c-15 -17 -16 -30 -2 -31 23 -3 24 -5 10 -15 -12 -9 -12
-10 4 -5 12 4 24 0 32 -11 12 -16 15 -16 23 -3 8 12 5 17 -14 23 -17 6 -25 16
-25 33 0 27 -9 30 -28 9z"/>
<path d="M1210 2319 c0 -5 5 -7 10 -4 6 3 10 8 10 11 0 2 -4 4 -10 4 -5 0 -10
-5 -10 -11z"/>
<path d="M1596 2301 c16 -17 73 -31 80 -20 9 15 0 20 -48 26 -32 4 -40 3 -32
-6z"/>
<path d="M986 2265 c-11 -8 -15 -15 -10 -15 6 0 19 7 30 15 10 8 15 14 9 14
-5 0 -19 -6 -29 -14z"/>
<path d="M1080 2210 c0 -5 7 -10 15 -10 8 0 15 5 15 10 0 6 -7 10 -15 10 -8 0
-15 -4 -15 -10z"/>
<path d="M1598 2206 c-12 -9 -18 -27 -18 -50 0 -30 5 -40 33 -56 39 -24 41
-24 62 -3 13 12 16 27 12 56 -6 43 -22 60 -49 53 -9 -2 -18 0 -20 4 -2 5 -11
3 -20 -4z"/>
<path d="M1114 2200 c-5 -5 -20 -11 -34 -12 -35 -4 -62 -59 -52 -107 8 -35 10
-36 62 -43 45 -5 61 -3 88 14 31 19 44 41 21 36 -6 -2 -12 16 -14 40 -4 50 -9
57 -38 57 -12 0 -21 6 -19 13 3 15 -1 15 -14 2z"/>
<path d="M610 2125 c0 -7 30 -13 34 -7 3 4 -4 9 -15 9 -10 1 -19 0 -19 -2z"/>
<path d="M725 2110 c-8 -13 4 -32 16 -25 12 8 12 35 0 35 -6 0 -13 -4 -16 -10z"/>
<path d="M606 2093 c-9 -9 -36 -71 -36 -82 0 -4 15 -13 34 -19 40 -15 54 -41
31 -58 -10 -8 -12 -14 -6 -19 8 -4 8 -12 1 -25 -14 -25 -13 -41 2 -37 7 1 14
-8 16 -20 4 -26 -13 -31 -26 -8 -7 13 -14 14 -35 6 -31 -12 -36 1 -12 33 20
26 19 50 0 42 -9 -3 -15 0 -15 9 0 8 5 14 11 13 6 -2 14 3 16 10 3 6 -2 12
-10 12 -9 0 -18 6 -20 13 -3 6 -6 -5 -6 -25 -1 -20 3 -39 8 -43 6 -3 3 -17 -6
-34 -11 -19 -14 -34 -7 -47 12 -26 11 -144 -1 -144 -5 0 -4 -5 3 -12 7 -7 12
-22 12 -34 0 -13 4 -25 9 -29 5 -3 17 -29 25 -59 17 -57 65 -126 97 -138 23
-9 25 -28 4 -28 -8 0 -15 6 -15 13 0 8 -3 8 -9 -2 -5 -8 -16 -11 -25 -8 -25
10 -107 -21 -141 -53 -16 -15 -35 -26 -41 -23 -6 2 -14 -5 -17 -17 -7 -28 -27
-25 -27 5 0 25 -14 33 -25 15 -9 -14 -25 -12 -25 3 0 6 -5 19 -10 27 -9 13
-11 13 -20 0 -8 -12 -10 -12 -10 5 -1 19 -1 19 -14 3 -20 -27 -24 -22 -23 22
2 39 17 58 17 21 0 -13 7 -18 25 -18 20 0 25 5 25 23 0 13 -4 24 -10 24 -5 0
-7 -7 -4 -15 4 -8 1 -15 -5 -15 -6 0 -11 11 -11 25 0 16 6 25 15 25 8 0 15 5
15 10 0 6 -7 10 -15 10 -10 0 -15 10 -15 29 0 36 -15 48 -29 24 -8 -15 -10
-10 -11 22 0 30 3 36 10 25 9 -13 11 -13 19 -1 12 18 2 43 -13 34 -6 -4 -29
-8 -52 -8 -30 -1 -44 4 -57 21 -16 22 -16 23 4 29 15 5 17 10 10 19 -11 13 -8
202 2 213 12 11 25 -8 19 -30 -5 -21 -5 -21 12 -4 14 13 17 27 13 52 -4 21 -1
35 6 38 9 3 9 8 0 18 -17 17 -16 39 1 39 8 0 17 7 20 16 5 13 -1 15 -47 9 -28
-4 -63 -2 -78 3 -16 6 -31 7 -42 1 -11 -7 -17 -6 -17 1 0 5 -17 10 -37 9 -37
0 -37 -1 -13 -12 24 -11 24 -11 -12 -15 -34 -3 -38 -6 -38 -32 0 -15 6 -30 13
-33 9 -3 9 -7 -2 -20 -12 -15 -11 -17 3 -17 20 0 21 -29 1 -36 -12 -5 -14 -84
-15 -560 0 -350 3 -554 9 -554 25 0 46 -76 46 -165 -1 -89 -29 -225 -46 -225
-5 0 -9 -21 -9 -47 1 -42 2 -46 14 -31 7 10 26 56 42 103 16 46 34 87 41 89 6
3 23 -4 37 -15 19 -15 23 -24 16 -37 -9 -17 -57 -130 -108 -252 -15 -36 -30
-66 -34 -68 -5 -2 -8 -21 -8 -43 0 -31 4 -39 18 -39 13 0 39 51 106 210 49
115 97 217 106 225 14 12 19 13 34 2 20 -15 17 -27 -59 -197 -35 -77 -95 -227
-95 -235 0 -3 577 -5 1283 -5 985 0 1286 3 1295 12 9 9 12 9 12 0 0 -8 19 -12
56 -12 55 0 56 1 52 25 -5 22 -2 25 26 25 35 0 116 -29 116 -41 0 -5 11 -9 25
-9 l25 0 0 540 c0 356 -3 540 -10 540 -6 0 -5 9 2 21 11 18 11 23 0 26 -10 4
-10 8 -1 19 10 12 8 17 -7 29 -17 12 -20 11 -25 -3 -5 -14 -7 -14 -17 3 -11
20 -62 29 -62 11 0 -5 -3 -7 -6 -4 -3 4 0 16 6 28 8 15 8 20 1 16 -6 -4 -11 0
-11 8 0 9 -4 16 -10 16 -13 0 -13 -17 0 -25 6 -4 3 -16 -7 -32 -17 -25 -17
-25 -33 -5 -10 12 -22 17 -29 12 -9 -5 -10 -10 -2 -14 6 -4 11 -20 11 -36 0
-27 -1 -28 -31 -20 -18 5 -36 7 -40 4 -5 -3 -15 -2 -21 3 -19 12 -58 11 -59
-2 -1 -5 0 -19 1 -30 2 -19 -14 -13 -16 6 -1 5 -2 14 -3 19 0 6 -6 10 -12 10
-8 0 -9 -18 -5 -58 5 -50 4 -59 -14 -70 -16 -10 -20 -10 -20 0 0 9 -3 8 -10
-2 -8 -13 -10 -13 -14 0 -3 8 -7 29 -9 45 -4 28 -4 27 -7 -7 -1 -21 -4 -42 -5
-48 -1 -5 -3 -24 -4 -42 -1 -34 -14 -31 -16 5 -4 70 -6 77 -21 77 -9 0 -18 -9
-21 -20 -3 -11 -10 -20 -15 -20 -5 0 -7 -8 -4 -17 16 -55 15 -73 -6 -73 -18 0
-20 4 -15 41 3 24 0 53 -8 72 -12 26 -14 28 -15 10 0 -22 -20 -44 -20 -23 0
17 -43 29 -62 16 -14 -8 -23 -7 -40 3 -19 12 -23 11 -39 -10 -17 -22 -19 -22
-19 -5 0 14 -3 17 -10 10 -13 -13 0 -49 18 -49 16 0 26 -200 11 -227 -16 -29
34 -70 118 -97 40 -12 77 -29 84 -37 6 -8 17 -14 24 -14 23 0 86 -92 110 -161
12 -33 12 -39 0 -39 -7 0 -17 -14 -20 -32 l-7 -31 -19 24 c-10 13 -19 29 -19
36 0 12 -43 63 -53 63 -12 0 -57 52 -52 60 3 5 0 12 -6 16 -6 3 -15 1 -19 -5
-4 -7 -24 -16 -44 -21 -35 -8 -36 -7 -30 13 6 22 6 22 -13 -1 -16 -17 -27 -21
-52 -16 -17 4 -31 11 -31 16 0 5 -5 6 -10 3 -8 -5 -7 -11 1 -21 7 -8 7 -14 1
-14 -23 0 -32 26 -16 49 12 17 13 26 5 34 -15 15 -14 27 3 21 11 -4 13 0 9 16
-9 33 -30 35 -66 7 -33 -25 -87 -28 -87 -5 0 5 -5 6 -10 3 -6 -4 -8 -11 -5
-16 4 -5 -3 -9 -13 -9 -15 0 -19 5 -15 20 10 37 -47 16 -59 -22 -7 -21 -38 0
-38 26 0 14 -4 35 -9 48 -5 13 -17 50 -27 83 -9 33 -21 64 -26 69 -12 15 -10
26 7 26 8 0 15 -5 15 -11 0 -5 5 -7 10 -4 18 11 32 -6 16 -18 -14 -11 -13 -15
5 -37 l21 -25 -6 27 c-4 16 -2 28 4 28 5 0 10 9 10 20 0 11 -5 20 -11 20 -8 0
-7 5 2 16 10 13 10 17 -2 24 -9 7 -15 5 -17 -5 -5 -22 -18 -18 -19 6 -2 18 3
21 32 17 18 -2 31 0 28 5 -3 4 3 14 13 22 18 13 18 14 0 34 -18 20 -18 21 10
44 22 19 36 23 64 20 31 -4 37 -2 47 20 7 15 12 72 11 134 0 111 0 115 78 398
9 33 17 74 19 90 1 17 6 38 10 47 5 13 2 20 -11 24 -11 4 -26 13 -34 19 -37
31 -58 28 -83 -12 -13 -21 -28 -49 -32 -63 -4 -14 -35 -83 -67 -155 -33 -71
-66 -144 -74 -162 -15 -33 -53 -67 -63 -56 -3 3 0 8 7 10 6 3 12 9 12 13 0 9
-63 -20 -68 -31 -2 -4 -11 -5 -22 -2 -12 3 -20 -2 -25 -17 -6 -17 -12 -20 -36
-15 -18 4 -29 3 -29 -4 0 -6 -14 -11 -30 -11 -18 0 -33 -6 -37 -15 -7 -20 -5
-22 31 -31 24 -6 28 -4 23 9 -3 8 0 20 6 25 15 12 80 12 88 0 3 -4 11 3 19 17
7 14 19 25 27 25 15 0 2 -32 -42 -96 -14 -20 -25 -44 -25 -53 0 -9 -14 -43
-30 -76 -16 -33 -30 -72 -30 -86 0 -15 -7 -29 -15 -33 -8 -3 -16 -18 -16 -33
-1 -17 -3 -21 -6 -10 -7 27 -22 20 -20 -10 1 -16 5 -30 8 -33 3 -3 0 -21 -7
-40 l-14 -35 6 33 c5 26 1 37 -17 53 -29 25 -32 24 -27 -6 3 -14 2 -25 -2 -25
-9 0 -34 -60 -31 -74 1 -5 -4 -5 -11 1 -17 14 -58 -1 -58 -22 0 -20 -17 -19
-29 2 -12 23 -21 14 -24 -26 -1 -17 -4 -31 -6 -31 -9 0 -30 36 -31 53 0 10 -8
17 -18 17 -10 0 -23 5 -30 12 -9 9 -15 8 -27 -8 -13 -17 -14 -17 -15 -1 0 21
-26 23 -34 1 -9 -22 -8 -24 12 -25 11 0 6 -6 -15 -16 -36 -18 -63 -12 -63 15
0 14 -7 19 -27 20 -39 0 -91 10 -111 20 -9 5 -29 12 -44 16 -22 5 -28 3 -28
-9 0 -9 5 -13 10 -10 6 3 18 -1 27 -10 13 -13 17 -14 24 -3 6 10 11 9 21 -5 8
-11 32 -21 56 -24 39 -5 43 -8 40 -32 -2 -20 -8 -25 -24 -23 -13 2 -25 -4 -29
-15 -7 -16 -9 -15 -15 7 l-8 25 -7 -23 c-8 -24 -25 -30 -25 -8 0 16 -93 66
-125 66 -18 0 -22 -4 -18 -20 3 -11 8 -20 12 -20 4 0 5 -16 3 -36 -3 -27 0
-39 12 -46 9 -5 16 -14 16 -21 0 -7 16 -30 35 -51 19 -22 35 -46 35 -53 0 -7
5 -13 10 -13 6 0 10 -7 10 -15 0 -8 4 -15 9 -15 5 0 11 -19 15 -42 4 -23 14
-50 23 -60 9 -10 13 -28 11 -42 -3 -17 0 -27 11 -31 12 -5 13 -8 3 -14 -7 -4
-12 -14 -10 -22 2 -9 -5 -13 -20 -12 -22 3 -22 2 -5 -25 l17 -27 -27 24 c-14
13 -24 27 -22 31 3 5 -1 20 -9 35 -8 14 -17 22 -20 16 -4 -5 -2 -12 4 -16 13
-8 13 -52 -1 -60 -14 -9 -51 25 -45 42 3 7 1 23 -4 35 -5 13 -9 18 -9 12 -1
-7 -7 -14 -15 -17 -10 -4 -13 1 -10 16 2 12 2 16 -2 10 -4 -9 -11 -10 -23 -3
-10 5 -22 6 -26 2 -5 -4 -5 1 -2 11 4 11 3 16 -3 12 -6 -3 -10 -1 -10 4 0 6
-7 11 -15 11 -8 0 -22 11 -31 26 -12 17 -20 22 -27 15 -6 -6 -19 -11 -30 -11
-15 0 -14 4 10 25 22 19 24 24 8 19 -16 -6 -18 -4 -8 6 13 14 33 5 33 -16 0
-21 23 -17 38 6 10 17 9 20 -13 26 -14 3 -25 10 -25 15 0 5 -11 14 -24 18 -26
10 -43 51 -21 51 7 0 15 7 19 15 3 9 0 15 -9 15 -7 0 -17 5 -21 11 -8 14 14
29 33 22 7 -3 13 0 13 7 0 6 -4 9 -8 6 -4 -2 -17 9 -27 25 -19 27 -38 35 -35
14 1 -6 -9 -12 -22 -15 -13 -4 -24 -15 -26 -27 -2 -12 -15 -26 -33 -33 -17 -8
-29 -20 -29 -31 0 -11 -5 -16 -14 -13 -7 3 -16 -3 -20 -12 -6 -16 -8 -16 -21
2 -13 17 -14 17 -15 2 0 -24 -17 -23 -30 2 -9 16 -8 20 5 20 8 0 15 5 15 11 0
6 -9 8 -22 3 -19 -6 -20 -5 -7 7 42 41 49 43 64 23 14 -18 15 -18 21 3 3 13
10 20 15 17 5 -3 9 -1 9 5 0 5 3 18 6 28 5 13 4 15 -4 8 -15 -14 -92 -6 -92 9
0 20 62 46 124 52 61 6 129 31 120 46 -5 8 44 24 64 20 6 -2 12 2 12 8 0 5 14
10 30 10 23 0 30 4 30 20 0 11 5 20 10 20 6 0 10 -6 10 -12 0 -10 3 -9 9 1 5
7 13 11 19 7 6 -3 9 11 7 39 -3 46 7 54 43 32 6 -5 12 -5 12 0 0 13 54 35 58
23 7 -19 27 -10 47 20 11 16 23 30 28 30 4 0 7 5 7 10 0 6 -8 5 -20 -2 -17
-11 -22 -10 -30 2 -10 16 5 40 26 40 8 0 11 6 7 16 -4 11 -13 13 -35 9 -29 -7
-29 -6 -17 17 7 12 12 28 11 34 -1 6 9 16 23 22 14 6 25 16 25 22 0 5 5 10 11
10 7 0 9 -9 6 -21 -3 -13 -1 -19 6 -16 7 2 13 13 15 25 3 19 10 22 47 22 24 0
48 -6 52 -12 9 -14 69 -58 79 -58 3 0 4 7 0 15 -4 10 1 15 15 15 15 0 18 5 14
22 -4 17 0 27 17 37 18 10 20 10 11 0 -17 -17 -16 -29 1 -29 7 0 16 9 19 20 7
25 47 28 47 3 1 -16 2 -16 18 2 24 27 57 45 82 45 11 0 20 5 20 10 0 6 -5 10
-11 10 -5 0 -8 4 -5 9 4 5 1 11 -6 13 -22 8 -57 -4 -63 -21 -8 -26 -91 -16
-99 12 l-7 22 -16 -22 c-8 -13 -19 -23 -23 -23 -15 0 -17 34 -4 50 15 19 7 70
-12 70 -8 0 -14 -9 -14 -21 0 -15 -5 -19 -15 -15 -21 8 -45 -3 -45 -20 0 -8
-4 -14 -10 -14 -5 0 -10 9 -10 20 0 11 7 20 15 20 8 0 15 8 15 18 0 12 3 14 8
4 6 -9 12 -6 21 12 12 22 11 27 -20 55 -19 17 -37 31 -41 31 -5 0 -8 7 -8 15
0 8 -8 15 -19 15 -10 0 -21 9 -24 20 -3 11 -9 20 -14 19 -23 -4 -34 3 -31 19
3 20 -18 52 -34 52 -16 0 -39 28 -28 35 14 9 32 -4 23 -18 -3 -7 3 -4 14 6 11
9 27 17 37 17 24 0 75 -27 113 -60 77 -68 149 -65 224 10 29 27 50 52 48 53
-2 2 -20 10 -39 17 -19 7 -50 24 -68 38 l-33 24 -24 -22 c-20 -19 -35 -22
-107 -22 -117 -1 -130 1 -123 13 4 6 1 10 -6 8 -27 -3 -40 1 -34 11 3 6 1 10
-4 10 -6 0 -11 -4 -11 -10 0 -5 -9 -10 -20 -10 -11 0 -20 -7 -20 -15 0 -9 -9
-15 -21 -15 -15 0 -19 4 -15 16 4 9 2 22 -3 28 -16 19 -28 131 -17 149 8 13 6
21 -7 34 -10 11 -17 13 -17 5 0 -7 -9 -12 -19 -12 -13 0 -18 -6 -16 -17 1 -10
0 -12 -2 -5 -3 6 -11 12 -18 12 -8 0 -19 9 -25 20 -13 24 -30 26 -30 5 0 -8
-5 -15 -10 -15 -6 0 -4 13 5 30 17 34 19 50 5 50 -5 0 -10 -7 -10 -15 0 -14
-37 -35 -60 -35 -5 0 -18 9 -29 21 -11 12 -24 18 -29 15 -6 -3 -13 5 -16 19
-4 14 -10 25 -15 25 -4 0 -6 11 -4 24 7 36 -13 40 -27 6 -17 -40 -34 -39 -26
1 3 17 6 38 6 46 0 11 7 14 25 10 23 -4 24 -3 12 12 -8 9 -12 22 -9 30 3 10 0
12 -11 8 -9 -3 -19 -2 -22 3 -10 16 -25 11 -25 -7 0 -15 -1 -15 -18 0 -10 10
-22 14 -26 10z m113 -205 c15 2 17 -3 13 -30 l-5 -32 -23 28 -24 27 0 -30 c0
-21 5 -31 15 -31 8 0 15 -9 15 -20 0 -10 9 -24 20 -30 32 -17 23 -27 -26 -27
l-47 0 6 57 c5 41 2 62 -7 76 -22 29 0 51 27 27 10 -10 27 -17 36 -15z m-540
-44 c-9 -11 -9 -18 0 -28 9 -11 9 -16 1 -21 -7 -4 -10 -18 -7 -31 2 -13 0 -24
-4 -24 -5 0 -9 -9 -9 -20 0 -11 5 -20 10 -20 6 0 5 -8 -2 -20 -12 -19 -13 -19
-21 2 -4 13 -5 34 -1 48 11 38 13 110 3 116 -16 10 0 22 21 17 16 -4 18 -8 9
-19z m669 -39 c-3 -3 -9 2 -12 12 -6 14 -5 15 5 6 7 -7 10 -15 7 -18z m-798
-24 c0 -11 -5 -23 -10 -26 -6 -4 -10 5 -10 19 0 14 5 26 10 26 6 0 10 -9 10
-19z m770 -58 c0 -5 -4 -14 -9 -22 -7 -11 -13 -10 -35 4 -14 10 -26 19 -26 21
0 2 16 4 35 4 19 0 35 -3 35 -7z m1290 -12 c0 -6 -4 -13 -10 -16 -5 -3 -10 1
-10 9 0 9 5 16 10 16 6 0 10 -4 10 -9z m-1000 -95 c0 -3 -4 -8 -10 -11 -5 -3
-10 -1 -10 4 0 6 5 11 10 11 6 0 10 -2 10 -4z m-840 -83 c0 -13 -9 -19 -35
-20 -21 -2 -35 2 -35 8 0 6 9 9 20 6 11 -3 20 -1 20 5 0 5 5 6 10 3 6 -3 10
-1 10 4 0 6 2 11 5 11 3 0 5 -8 5 -17z m-40 -74 c0 -5 -4 -9 -10 -9 -5 0 -10
7 -10 16 0 8 5 12 10 9 6 -3 10 -10 10 -16z m80 12 c0 -6 -4 -13 -10 -16 -5
-3 -10 1 -10 9 0 9 5 16 10 16 6 0 10 -4 10 -9z m414 -155 c19 -7 49 -24 67
-39 18 -15 41 -27 50 -27 41 0 68 -77 37 -108 -17 -17 -48 -15 -48 3 0 22 -10
19 -42 -12 -25 -24 -28 -25 -29 -7 0 10 -3 13 -6 7 -7 -20 -20 -15 -26 8 -5
20 -7 20 -22 5 -9 -9 -22 -16 -28 -16 -7 1 0 11 16 23 21 18 24 26 15 35 -13
13 -48 16 -48 4 0 -4 -17 -7 -37 -6 -44 2 -143 -17 -143 -28 0 -4 -13 -5 -30
-2 -25 5 -31 3 -38 -16 l-9 -23 -16 24 c-9 13 -17 29 -17 36 0 7 -7 13 -15 13
-8 0 -15 4 -15 9 0 19 42 -3 52 -28 10 -24 11 -24 17 -6 15 50 83 124 145 157
34 18 108 15 170 -6z m1207 -54 c-22 -62 -68 -101 -86 -72 -7 12 21 60 42 73
7 4 13 14 13 20 0 21 23 38 34 27 7 -7 6 -22 -3 -48z m-1535 -5 c1 -9 -4 -17
-11 -17 -14 0 -27 25 -17 34 10 10 25 1 28 -17z m1594 -102 c0 -8 -4 -15 -10
-15 -5 0 -10 7 -10 15 0 8 5 15 10 15 6 0 10 -7 10 -15z m865 -13 c0 -18 -20
-15 -23 4 -3 10 1 15 10 12 7 -3 13 -10 13 -16z m105 -8 c0 -8 -4 -12 -10 -9
-5 3 -10 10 -10 16 0 5 5 9 10 9 6 0 10 -7 10 -16z m-1603 -16 c-3 -8 -6 -5
-6 6 -1 11 2 17 5 13 3 -3 4 -12 1 -19z m1365 -33 c-12 -22 -27 -2 -18 22 5
12 10 13 17 6 7 -7 8 -17 1 -28z m-45 3 c-3 -8 -6 -5 -6 6 -1 11 2 17 5 13 3
-3 4 -12 1 -19z m-1944 -29 c-4 -16 -12 -20 -29 -16 -25 4 -53 -18 -39 -31 4
-4 10 -1 12 6 6 16 33 15 33 -2 0 -7 -12 -25 -26 -40 -26 -26 -71 -34 -108
-20 -22 8 -21 53 2 60 9 3 29 12 44 20 14 8 31 14 38 14 6 0 18 7 26 15 24 23
53 20 47 -6z m1917 11 c0 -5 -2 -10 -4 -10 -3 0 -8 5 -11 10 -3 6 -1 10 4 10
6 0 11 -4 11 -10z m-1870 -10 c0 -5 -5 -10 -11 -10 -5 0 -7 5 -4 10 3 6 8 10
11 10 2 0 4 -4 4 -10z m1870 -32 c0 -16 -3 -19 -11 -11 -6 6 -8 16 -5 22 11
17 16 13 16 -11z m-240 -74 c0 -8 -5 -12 -10 -9 -6 4 -8 11 -5 16 9 14 15 11
15 -7z m-97 -1 c-7 -2 -19 -2 -25 0 -7 3 -2 5 12 5 14 0 19 -2 13 -5z m-1761
-48 c0 -5 -5 -11 -11 -13 -6 -2 -11 4 -11 13 0 9 5 15 11 13 6 -2 11 -8 11
-13z m1294 -57 c-9 -53 -10 -54 -41 -38 -28 15 -33 30 -9 30 13 0 14 3 4 15
-16 19 -4 35 27 35 24 0 25 -2 19 -42z m604 27 c0 -8 -4 -15 -10 -15 -5 0 -10
7 -10 15 0 8 5 15 10 15 6 0 10 -7 10 -15z m-1494 -16 c10 -17 -13 -36 -27
-22 -12 12 -4 33 11 33 5 0 12 -5 16 -11z m814 -19 c0 -5 -2 -10 -4 -10 -3 0
-8 5 -11 10 -3 6 -1 10 4 10 6 0 11 -4 11 -10z m62 -72 c-9 -9 -8 -16 5 -30
13 -14 14 -21 5 -30 -9 -9 -12 -7 -12 9 0 11 -7 26 -15 33 -13 11 -13 15 -3
21 20 13 34 11 20 -3z m-92 -72 c0 -8 -6 -18 -12 -22 -7 -4 -10 -4 -6 1 4 4 3
14 -3 22 -9 10 -8 13 5 13 9 0 16 -6 16 -14z m146 -55 c18 14 18 0 0 -23 -15
-21 -32 -23 -38 -5 -7 19 -3 61 8 78 7 10 10 4 12 -24 3 -32 6 -36 18 -26z
m-556 13 c0 -17 -22 -14 -28 4 -2 7 3 12 12 12 9 0 16 -7 16 -16z m-130 -35
c0 -11 -4 -18 -10 -14 -5 3 -7 12 -3 20 7 21 13 19 13 -6z m-460 -110 c0 -5
-4 -9 -10 -9 -5 0 -10 7 -10 16 0 8 5 12 10 9 6 -3 10 -10 10 -16z m-285 -69
c3 -5 1 -10 -4 -10 -6 0 -11 5 -11 10 0 6 2 10 4 10 3 0 8 -4 11 -10z m49 -6
c4 -9 4 -19 2 -21 -8 -8 -26 8 -26 23 0 19 16 18 24 -2z m113 -116 c-3 -8 -6
-5 -6 6 -1 11 2 17 5 13 3 -3 4 -12 1 -19z m213 -18 c0 -5 -4 -10 -10 -10 -5
0 -10 -7 -10 -16 0 -20 -16 -9 -23 16 -4 16 0 20 19 20 13 0 24 -4 24 -10z
m30 -43 c0 -41 -37 -70 -53 -42 -5 10 -12 13 -16 9 -8 -12 -51 -36 -51 -29 0
14 38 43 64 49 16 4 30 15 33 26 8 32 23 23 23 -13z m30 -81 c0 -26 -21 -29
-43 -7 l-21 21 32 0 c21 0 32 -5 32 -14z m50 -1 c0 -1 -7 -8 -15 -15 -13 -10
-15 -9 -15 8 0 15 5 20 15 16 8 -4 15 -7 15 -9z m-83 -51 c-3 -3 -12 -4 -19
-1 -8 3 -5 6 6 6 11 1 17 -2 13 -5z"/>
<path d="M2206 2035 c-3 -9 0 -15 9 -15 9 0 12 6 9 15 -4 8 -7 15 -9 15 -2 0
-5 -7 -9 -15z"/>
<path d="M2670 2035 c0 -15 -32 -16 -46 -2 -13 12 -24 7 -18 -8 5 -11 21 -15
61 -15 37 0 52 3 47 11 -3 6 0 15 7 20 10 6 4 9 -18 9 -23 0 -33 -5 -33 -15z"/>
<path d="M2956 2036 c3 -8 12 -12 20 -9 17 6 9 23 -11 23 -8 0 -12 -6 -9 -14z"/>
<path d="M2120 2030 c-23 -7 -23 -8 -3 -9 12 -1 24 -9 26 -18 3 -11 5 -7 6 10
0 15 0 27 -1 26 -2 -1 -14 -5 -28 -9z"/>
<path d="M2322 2023 c4 -24 81 -35 106 -17 15 12 12 13 -20 14 -21 0 -38 5
-38 10 0 6 -12 10 -26 10 -19 0 -25 -4 -22 -17z"/>
<path d="M2500 2030 c0 -5 4 -10 9 -10 6 0 13 5 16 10 3 6 -1 10 -9 10 -9 0
-16 -4 -16 -10z"/>
<path d="M2817 2019 c4 -12 19 -27 35 -33 15 -6 28 -15 28 -21 0 -5 5 -3 10 5
8 13 11 13 19 1 7 -11 13 -10 32 8 22 21 23 23 6 32 -9 6 -15 14 -12 20 4 5 0
9 -9 9 -8 0 -16 -5 -18 -11 -2 -7 -12 -7 -31 0 -46 18 -66 14 -60 -10z"/>
<path d="M2168 2023 c7 -3 16 -2 19 1 4 3 -2 6 -13 5 -11 0 -14 -3 -6 -6z"/>
<path d="M2272 2021 c2 -7 7 -12 11 -12 12 1 9 15 -3 20 -7 2 -11 -2 -8 -8z"/>
<path d="M1330 1992 c-32 -26 -20 -53 42 -91 l51 -32 39 27 c59 41 67 62 34
91 -35 30 -132 33 -166 5z"/>
<path d="M2100 1999 c0 -5 5 -7 10 -4 6 3 10 8 10 11 0 2 -4 4 -10 4 -5 0 -10
-5 -10 -11z"/>
<path d="M1047 1935 c-10 -7 -17 -22 -15 -32 3 -16 5 -16 26 5 35 35 27 56
-11 27z"/>
<path d="M2110 1910 c0 -5 4 -10 9 -10 6 0 13 5 16 10 3 6 -1 10 -9 10 -9 0
-16 -4 -16 -10z"/>
<path d="M2170 1910 c0 -5 5 -10 11 -10 5 0 7 5 4 10 -3 6 -8 10 -11 10 -2 0
-4 -4 -4 -10z"/>
<path d="M2250 1910 c0 -5 5 -10 11 -10 5 0 7 5 4 10 -3 6 -8 10 -11 10 -2 0
-4 -4 -4 -10z"/>
<path d="M955 1869 c-4 -6 -4 -13 -1 -16 3 -4 6 -1 6 5 0 6 8 13 18 15 15 4
15 5 0 6 -9 0 -20 -4 -23 -10z"/>
<path d="M236 1781 c-10 -29 2 -41 32 -30 27 10 30 33 3 24 -14 -4 -21 0 -23
12 -4 15 -5 14 -12 -6z"/>
<path d="M306 1772 c-3 -6 -1 -14 5 -17 15 -10 25 3 12 16 -7 7 -13 7 -17 1z"/>
<path d="M235 1630 c3 -5 8 -10 11 -10 2 0 4 5 4 10 0 6 -5 10 -11 10 -5 0 -7
-4 -4 -10z"/>
<path d="M368 1563 c6 -2 18 -2 25 0 6 3 1 5 -13 5 -14 0 -19 -2 -12 -5z"/>
<path d="M1690 1555 c-14 -17 -2 -51 32 -88 15 -18 16 -17 14 20 -1 21 -9 49
-17 61 -14 20 -18 21 -29 7z"/>
<path d="M390 1496 c0 -11 9 -16 26 -16 31 0 28 23 -4 28 -15 2 -22 -2 -22
-12z"/>
<path d="M1658 1499 c-10 -5 -18 -17 -18 -24 0 -8 -4 -15 -10 -15 -5 0 -10
-14 -10 -31 0 -17 -4 -28 -10 -24 -5 3 -6 13 -3 23 6 15 4 15 -15 -2 -25 -21
-26 -25 -13 -45 8 -12 12 -13 26 -1 14 11 17 10 22 -9 4 -17 8 -19 19 -10 10
8 14 8 14 0 0 -6 4 -11 9 -11 9 0 13 35 10 85 0 17 -2 40 -3 53 0 12 -1 22 -1
22 0 0 -8 -5 -17 -11z m2 -90 c0 -4 -6 -9 -12 -12 -9 -3 -14 6 -15 27 -2 29
-1 30 12 12 8 -11 15 -23 15 -27z"/>
<path d="M380 1444 c0 -11 12 -12 63 -5 5 0 6 5 2 10 -8 15 -65 10 -65 -5z"/>
<path d="M1710 1426 c0 -8 -6 -17 -12 -19 -10 -4 -9 -8 2 -16 22 -16 35 -8 38
22 2 19 -1 27 -12 27 -9 0 -16 -6 -16 -14z"/>
<path d="M1790 1412 c0 -5 7 -15 15 -22 8 -7 15 -8 15 -2 0 5 -7 15 -15 22 -8
7 -15 8 -15 2z"/>
<path d="M2745 1410 c3 -5 8 -10 11 -10 2 0 4 5 4 10 0 6 -5 10 -11 10 -5 0
-7 -4 -4 -10z"/>
<path d="M2968 1393 c6 -2 18 -2 25 0 6 3 1 5 -13 5 -14 0 -19 -2 -12 -5z"/>
<path d="M1547 1353 c-10 -9 -9 -23 2 -23 5 0 11 7 15 15 5 15 -5 20 -17 8z"/>
<path d="M1586 1335 c-3 -8 -1 -15 4 -15 13 0 22 18 11 24 -5 3 -11 -1 -15 -9z"/>
<path d="M1437 1326 c-12 -9 -14 -16 -8 -21 6 -3 11 -2 11 3 0 5 16 8 36 6 23
-1 34 1 31 9 -5 17 -49 19 -70 3z"/>
<path d="M2800 1229 c0 -5 5 -7 10 -4 6 3 10 8 10 11 0 2 -4 4 -10 4 -5 0 -10
-5 -10 -11z"/>
<path d="M2935 1230 c-30 -8 -30 -8 8 -9 20 0 37 4 37 9 0 11 -2 11 -45 0z"/>
<path d="M2692 1180 c0 -14 2 -19 5 -12 2 6 2 18 0 25 -3 6 -5 1 -5 -13z"/>
<path d="M2360 1111 c0 -16 -6 -32 -12 -34 -7 -3 -3 -6 10 -6 18 -1 22 4 22
28 0 17 -4 33 -10 36 -6 4 -10 -6 -10 -24z"/>
<path d="M1143 1064 c16 -9 32 -13 35 -9 9 9 -19 25 -43 24 -16 0 -15 -2 8
-15z"/>
<path d="M2463 1073 c9 -2 25 -2 35 0 9 3 1 5 -18 5 -19 0 -27 -2 -17 -5z"/>
<path d="M2210 1060 c0 -5 5 -10 11 -10 5 0 7 5 4 10 -3 6 -8 10 -11 10 -2 0
-4 -4 -4 -10z"/>
<path d="M2220 940 c0 -19 3 -21 12 -12 9 9 9 15 0 24 -9 9 -12 7 -12 -12z"/>
<path d="M1985 900 c-3 -5 1 -10 10 -10 9 0 13 5 10 10 -3 6 -8 10 -10 10 -2
0 -7 -4 -10 -10z"/>
<path d="M1155 891 c-6 -11 9 -23 19 -14 9 9 7 23 -3 23 -6 0 -12 -4 -16 -9z"/>
<path d="M2027 893 c-4 -3 -7 -17 -7 -31 0 -21 2 -22 15 -12 8 7 15 21 15 31
0 19 -11 25 -23 12z"/>
<path d="M1516 835 c-11 -29 -7 -37 10 -20 11 11 13 20 7 26 -7 7 -12 5 -17
-6z"/>
<path d="M1972 767 c-10 -11 -9 -25 5 -66 10 -33 20 -48 26 -42 5 5 16 7 23 4
8 -3 14 0 14 6 0 6 -5 11 -11 11 -5 0 -8 4 -4 9 3 5 1 12 -4 16 -5 3 -15 -3
-21 -12 -10 -15 -11 -14 -6 7 3 14 2 39 -2 54 -7 24 -10 26 -20 13z"/>
<path d="M1398 763 c7 -3 16 -2 19 1 4 3 -2 6 -13 5 -11 0 -14 -3 -6 -6z"/>
<path d="M2041 744 c0 -11 3 -14 6 -6 3 7 2 16 -1 19 -3 4 -6 -2 -5 -13z"/>
<path d="M1921 680 c0 -8 4 -22 9 -30 12 -18 12 -2 0 25 -6 13 -9 15 -9 5z"/>
<path d="M706 645 c-3 -8 -1 -15 4 -15 6 0 10 7 10 15 0 8 -2 15 -4 15 -2 0
-6 -7 -10 -15z"/>
<path d="M2225 621 c-3 -5 -1 -12 5 -16 5 -3 10 1 10 9 0 18 -6 21 -15 7z"/>
<path d="M655 610 c-19 -7 -19 -8 -2 -15 12 -5 24 -2 35 9 13 13 14 16 2 15
-8 0 -24 -4 -35 -9z"/>
<path d="M2238 543 c7 -3 16 -2 19 1 4 3 -2 6 -13 5 -11 0 -14 -3 -6 -6z"/>
<path d="M805 509 c-4 -6 -5 -13 -2 -16 7 -7 27 6 27 18 0 12 -17 12 -25 -2z"/>
<path d="M830 475 c0 -8 5 -15 10 -15 6 0 10 7 10 15 0 8 -4 15 -10 15 -5 0
-10 -7 -10 -15z"/>
<path d="M970 360 c0 -5 7 -10 16 -10 8 0 12 5 9 10 -3 6 -10 10 -16 10 -5 0
-9 -4 -9 -10z"/>
<path d="M856 346 c3 -9 11 -16 16 -16 13 0 5 23 -10 28 -7 2 -10 -2 -6 -12z"/>
<path d="M1036 315 c4 -8 12 -15 20 -15 8 0 14 7 14 15 0 8 -9 15 -20 15 -13
0 -18 -5 -14 -15z"/>
</g>
</svg>
